<?xml version="1.0" encoding="utf-8"?>
<!-- Generator: Adobe Illustrator 28.1.0, SVG Export Plug-In . SVG Version: 6.00 Build 0)  -->
<svg version="1.1" id="Layer_1" xmlns="http://www.w3.org/2000/svg" xmlns:xlink="http://www.w3.org/1999/xlink" x="0px" y="0px"
	 viewBox="0 0 1901.9 2000" style="enable-background:new 0 0 1901.9 2000;" xml:space="preserve">
<style type="text/css">
	.st0{fill:#333333;}
</style>
<g>
	<path class="st0" d="M950.9,1306.5c-189.2,0-342.6,153.4-342.6,342.6c0,189.2,153.4,342.6,342.6,342.6
		c189.2,0,342.6-153.4,342.6-342.6C1293.6,1459.9,1140.2,1306.5,950.9,1306.5z M1150.5,1473.4c-113.9,84.2-188.4,198-244.5,325.7
		c-11.5,26.1-19.6,32.1-48.9,35c-6.7-0.2-9.3-7.5-11.4-12.9c-18.3-49.2-45.9-91.4-90.6-120.8c-24.2-15.2,31.4-39.5,46.7-34
		c31.8,5.2,49.6,30.6,67.6,53.8c6.2,4.9,9.9-4,12-8.6c56.8-113.5,144.9-197.4,262-246.1C1149,1461,1156.6,1468.5,1150.5,1473.4z"/>
	<g>
		<path class="st0" d="M271.7,1280.9c-9.5-1.7-20.8,1-33.9,8.1c-13,6.9-21.4,14.8-25.4,23.6c-3.9,8.8-3.1,18.3,2.4,28.6
			c5.6,10.4,13.1,16.4,22.6,18.1c9.5,1.7,20.8-0.9,33.8-7.9c13-7,21.5-14.9,25.4-23.8c3.9-8.9,3.1-18.5-2.4-28.8
			C288.6,1288.5,281.1,1282.6,271.7,1280.9z"/>
		<path class="st0" d="M1425.5,329l27.3,21.9l11.7-32.5c0.7-2.2,2-5.6,3.8-10.2c1.8-4.6,3.2-7.9,4.1-9.9
			c-5.4,4.3-11.7,8.7-18.9,13.1L1425.5,329z"/>
		<path class="st0" d="M694.3,159.9c-5.2-1.3-11.9-0.6-20.4,2.3l-12.3,4.2l12.8,37.1l12.9-4.4c8.6-3,14.3-6.7,17.1-11.3
			c2.8-4.5,3.1-10,0.9-16.3C703.1,165.1,699.4,161.3,694.3,159.9z"/>
		<path class="st0" d="M1216,214.3l32.6,12.6l1.3-34.5c0-2.3,0.2-6,0.6-10.9c0.3-4.9,0.7-8.5,0.9-10.7c-3.8,5.7-8.5,11.8-14,18.3
			L1216,214.3z"/>
		<path class="st0" d="M951,8.3C432.8,8.3,11.2,429.8,11.2,947.9c0,397.1,247.6,737.5,596.5,874.8c-26.5-52.2-41.5-111.2-41.5-173.6
			c0-58.8,13.3-114.5,37-164.4c-175.7-113.9-291.9-311.8-291.9-536.8c0-353.2,286.4-639.5,639.6-639.5
			c353.2,0,639.5,286.3,639.5,639.5c0,225-116.2,422.9-291.9,536.9c23.7,49.9,37,105.6,37,164.4c0,62.4-14.9,121.4-41.5,173.6
			c348.9-137.4,596.5-477.7,596.5-874.8C1890.6,429.8,1469.1,8.3,951,8.3z M1801.1,985.4l-16.8,0.3l-0.6-35.3l-103.2,1.7l-0.3-19.6
			l103.2-1.7l-0.6-35.3l16.8-0.3L1801.1,985.4z M1786.8,793.5l-85.2,72.5l0.1,0.5c1.2-0.3,5.7-1.2,13.5-2.7
			c7.8-1.5,13.8-2.6,18.2-3.3l62.2-9.4l2.7,17.8l-118.6,18l-3.6-23.8l85.7-72.7l-0.1-0.6l-5.2,1.2c-9.9,2.3-19.1,4.1-27.4,5.3
			l-61.7,9.4l-2.7-17.6l118.6-18L1786.8,793.5z M1774.6,736.4l-15.9,4.8l-14-46.2l-31.3,9.5l13.1,43.3l-15.7,4.8l-13.1-43.3
			l-36.1,10.9l14,46.2l-15.9,4.8l-19.7-65l114.8-34.8L1774.6,736.4z M147,667.3c5.9-16.8,15.5-28.1,28.9-33.7
			c13.4-5.6,29.3-5.2,47.8,1.2c18.4,6.4,31.2,16,38.2,28.8c7,12.8,7.6,27.6,1.7,44.5c-6,17.1-15.6,28.5-29,34.1
			c-13.4,5.6-29.4,5.2-48.1-1.3c-18.7-6.5-31.5-16.1-38.3-28.9C141.4,699.4,141,684.4,147,667.3z M123.8,753.7l117.1,26l-4.2,19.2
			l-117.1-26L123.8,753.7z M113.8,796.2l16.7,2.1l-4.4,35l102.4,12.9l-2.5,19.5l-102.4-12.9l-4.4,35l-16.7-2.1L113.8,796.2z
			 M100.9,941.5l119.7-46.8l0.3,20.8L187.8,928l0.7,45.9l33.5,11.2l0.3,20.7l-121.2-42.9L100.9,941.5z M119.8,1127.5l88.4-49.1
			l-0.1-0.5l-99.9-17.5l-4.7-27.3l118.2-20.5l3.2,18.6l-58.5,10.1c-5.9,1-13.6,2.2-23,3.5c-9.5,1.3-15.2,2.1-17.3,2.2l0.1,0.6
			L231,1066l3,17.1l-92.8,51.4l0.1,0.6c14.5-3.5,28.2-6.3,41-8.5l57.5-10l3,17.5l-118.2,20.5L119.8,1127.5z M151,1234.2
			c-5.1-14.6-6.2-26.4-3.2-35.3c3-8.9,10-15.4,21.1-19.3c14.1-5,26.7-1.2,37.9,11.4l38.8-49.6l7.4,21.1l-35.7,43l6.4,18.3l45.2-15.9
			l6.5,18.5l-113.2,39.9L151,1234.2z M497.8,1519.7l-75.8,93l-15.2-12.4l75.8-93L497.8,1519.7z M409.8,1437.8l-27.4,109l0.5,0.5
			l3.5-4c6.8-7.6,13.2-14.4,19.2-20.3l44.7-43.5l12.4,12.8l-86,83.6l-16.6-17.1l27.2-108.5l-0.3-0.4c-0.8,1-4,4.3-9.4,10.1
			c-5.4,5.7-9.7,10.2-12.9,13.3l-45.1,43.8l-12.5-12.9l86-83.7L409.8,1437.8z M367.6,1386l11.5,15.7l-96.8,70.9l-40-54.6l13.4-9.8
			l28.5,38.9l30.3-22.2l-26.7-36.5l13.4-9.8l26.7,36.5L367.6,1386z M314.3,1335.3c-4.9,13.6-16.1,25.1-33.5,34.5
			c-17.5,9.4-33.2,12.2-47.1,8.6s-25.2-13.4-33.8-29.3c-8.4-15.7-10.2-30.4-5.3-44.1c4.9-13.7,16-25.1,33.3-34.4
			c17.2-9.2,32.9-12.1,47.1-8.6c14.2,3.5,25.5,13.1,33.9,28.9C317.4,1306.9,319.2,1321.7,314.3,1335.3z M324.1,573.8l-112.2,5.6
			l-0.3,0.6l4.9,2.2c9.3,4.2,17.6,8.4,25,12.5l54.6,30.1l-8.6,15.6l-105.1-57.9l11.5-20.8l111.7-5.6l0.2-0.4
			c-1.2-0.5-5.3-2.5-12.4-6.1c-7.1-3.5-12.6-6.4-16.4-8.5l-55.1-30.3l8.7-15.7l105.1,57.9L324.1,573.8z M404.8,452.5
			c-0.3,9.8-4.9,19.9-13.6,30.3c-8.7,10.4-17.5,17.5-26.3,21.4l-14.2-12c5.5-2.5,10.8-5.7,15.9-9.4c5.1-3.8,9.4-7.7,12.8-11.7
			c5-5.9,7.6-11.3,7.7-16c0.1-4.7-1.7-8.7-5.5-11.9c-3.4-2.9-7.4-4-12-3.5c-4.6,0.6-11.9,3.6-22,8.9c-10.4,5.5-19.3,8.2-26.5,7.9
			c-7.2-0.2-13.9-2.9-20-8.1c-7.7-6.5-11.4-14.2-11.2-23.4c0.2-9.1,4.1-18.3,11.9-27.5c7.4-8.8,16.7-15.9,27.9-21.4l8.2,15.1
			c-10.3,5.3-18.2,11.1-23.6,17.5c-4.1,4.9-6.1,9.4-6.1,13.7c0,4.3,1.7,7.9,5.2,10.8c2.4,2,4.8,3.2,7.4,3.7c2.5,0.4,5.5,0.1,9-0.9
			c3.4-1,8.9-3.5,16.4-7.4c8.5-4.4,15.3-7.1,20.3-8.2c5.1-1.1,9.8-1.1,14,0c4.3,1.1,8.5,3.4,12.6,6.9
			C401.2,434.3,405.1,442.7,404.8,452.5z M429.5,437l-82.1-87.5l49.5-46.4l11.3,12.1l-35.2,33l22.3,23.8l33-30.9l11.2,12l-33,30.9
			l25.8,27.5l35.2-33l11.4,12.2L429.5,437z M533.6,351.5c-14.2,10.3-28.3,13.9-42.1,10.8c-13.9-3.1-26.6-12.7-38.2-28.7
			c-7.3-10.1-11.9-20.3-13.7-30.5c-1.8-10.3-0.6-19.9,3.4-29c4.1-9.1,10.8-17.1,20.3-23.9c9.9-7.2,20.6-11.8,32-13.7l3.9,17.4
			c-4.4,0.8-8.9,2-13.4,3.4c-4.5,1.5-8.8,3.7-12.8,6.6c-9.1,6.6-14,15-14.5,25.3c-0.5,10.3,3.3,21.1,11.6,32.5
			c8.6,11.9,17.7,19.1,27.1,21.6c9.5,2.5,19,0.3,28.5-6.6c4.1-3,7.8-6.3,11.1-9.9c3.3-3.6,6.5-7.6,9.7-11.9l9.9,13.6
			C550.8,336.8,543.2,344.5,533.6,351.5z M642.5,264.4c-0.3,7.7-2.8,14.7-7.5,21.2c-4.7,6.5-11.5,12.1-20.4,16.7
			c-13.2,6.9-25.3,8.7-36.2,5.6c-11-3.2-19.6-10.9-26-23.1l-35.7-68.6l17.5-9.1l35.1,67.3c4.6,8.8,10,14.2,16.2,16.2
			c6.3,2,13.6,0.9,22-3.5c16.4-8.5,20.1-21.4,11.1-38.7l-35-67.2l17.4-9.1l35.9,68.8C640.9,249,642.8,256.8,642.5,264.4z
			 M740.9,248.5l-42.8-35.9l-18.3,6.3l15.6,45.3l-18.5,6.4l-39.2-113.4l32-11.1c14.6-5.1,26.4-6.1,35.3-3
			c8.9,3.1,15.3,10.1,19.1,21.2c4.9,14.1,1,26.7-11.6,37.8l49.4,39.1L740.9,248.5z M773.5,240.1L746,123.4l19.1-4.5l27.5,116.8
			L773.5,240.1z M859.1,224.2l-19.4,2.7l-14.2-102.2l-35,4.9l-2.3-16.7l89.3-12.4l2.3,16.7l-35,4.9L859.1,224.2z M948.2,171.9
			l0.8,46.5l-19.7,0.3l-0.7-45.9l-41-73.5l21.3-0.3l29.3,54.3l27.5-55.2l21.3-0.3L948.2,171.9z M1138.3,241.5l11.7-58.2
			c1.2-5.8,2.9-13.4,5.1-22.8c2.2-9.3,3.6-15,4.2-16.9l-0.6-0.1l-55.1,90.9l-17-3.4l-14.3-105.1l-0.6-0.1c-2,14.8-4.3,28.5-6.9,41.3
			l-11.6,57.2l-17.5-3.5l23.8-117.6l27.1,5.5l13.8,100.2l0.5,0.1l52.5-86.8l27.2,5.5l-23.8,117.6L1138.3,241.5z M1265.9,287.4
			l-19.4-7.5l0.8-35.4l-42.8-16.6l-23,26.8l-19.3-7.5l85.4-96.2l19.9,7.7L1265.9,287.4z M1337.6,328.7l-3.3-112.3l-0.6-0.3l-2.3,4.8
			c-4.4,9.2-8.7,17.4-13,24.7l-31.2,54l-15.4-8.9l60-103.9l20.6,11.9l3.4,111.8l0.4,0.2c0.5-1.1,2.6-5.2,6.3-12.2
			c3.7-7,6.6-12.4,8.8-16.3l31.4-54.4l15.6,9l-60,103.9L1337.6,328.7z M1434.6,400.8l11.5-33.5l-35.8-28.7l-30,18.6l-16.1-13
			l110.5-65.8l16.6,13.4l-40.5,122L1434.6,400.8z M1504.7,472.6c-5.2-4.2-10.5-9.1-15.7-14.8c-12.3-13.3-17.9-27.3-16.7-41.8
			c1.2-14.5,9-28.5,23.4-41.8c14.2-13.1,29-19.3,44.6-18.6c15.6,0.7,30,8.2,43.2,22.5c8.5,9.2,14.8,19.5,18.9,31l-16.7,6
			c-3.3-10.2-8.3-18.9-14.9-26c-8.7-9.4-18.5-14.1-29.5-14.1c-11,0-21.6,4.7-31.8,14.2c-10.8,10-16.7,20-17.7,30.1
			c-1,10.1,2.7,19.8,11.3,29c4.3,4.7,9.5,9.1,15.6,13.3l22.7-21l-16.9-18.2l12.3-11.4l30,32.4l-44.2,40.9
			C1515.9,480.8,1509.9,476.8,1504.7,472.6z M1531.1,504.6l98.3-68.8l38.9,55.6l-13.6,9.5l-27.7-39.5l-26.8,18.7l25.9,37l-13.4,9.4
			l-25.9-37l-30.9,21.6l27.7,39.5l-13.6,9.6L1531.1,504.6z M1588,589.6l-7.8-16l107.9-52.5l12.1,24.9l-71.2,71.7l0.2,0.4l100.8-10.9
			l12.1,24.9l-107.9,52.5l-8.3-17l53.4-26c5.4-2.6,12.4-5.9,21.2-9.8c8.7-3.9,14.1-6.2,16-6.9l-0.3-0.6l-105.7,11.4l-7.6-15.6
			l74.9-75.2l-0.3-0.6c-13,7.4-25.3,13.9-37,19.6L1588,589.6z M1564.3,1536.5l-90.2-45.7l-0.4,0.3l41.5,92.6l-20,19.2l-83.2-86.5
			l13.6-13.1l41.1,42.8c4.1,4.3,9.4,10,15.8,17.1c6.4,7.1,10.3,11.5,11.5,13.1l0.5-0.5l-43.4-97.1l12.5-12l94.6,48.1l0.5-0.5
			c-11-10.1-21-19.8-30-29.2l-40.5-42.1l12.8-12.3l83.2,86.5L1564.3,1536.5z M1606.4,1489.5l-13.2-10l29.1-38.5l-26-19.7l-27.3,36.1
			l-13.1-9.9l27.3-36.1l-30-22.7l-29.1,38.5l-13.3-10.1l41-54.1l95.7,72.4L1606.4,1489.5z M1662.3,1414.5l-14.5-8.5l17.8-30.5
			l-89.1-52l9.9-16.9l89.1,52l17.8-30.5l14.5,8.5L1662.3,1414.5z M1731.1,1288.9c-4.6,10.5-11.4,20-20.6,28.5l-12.2-12.1
			c8.4-8,14.2-15.8,17.5-23.5c2.5-5.8,3.2-10.8,1.9-14.9c-1.2-4.1-3.9-7.1-8.1-8.9c-2.9-1.2-5.6-1.7-8.1-1.4
			c-2.6,0.3-5.3,1.5-8.3,3.4c-3,2-7.5,5.9-13.6,11.8c-6.9,6.6-12.6,11.2-17.1,13.7c-4.5,2.5-9,3.8-13.5,4c-4.4,0.2-9.1-0.8-14.1-3
			c-9.8-4.2-15.9-11.1-18.4-20.6c-2.5-9.5-1.1-20.5,4.3-32.9c5.4-12.4,11.8-21.8,19.1-28.1l17,7.4c-4.5,4-8.7,8.5-12.5,13.6
			c-3.8,5.1-6.8,10-8.9,14.9c-3.1,7.1-4,13-2.8,17.5c1.2,4.6,4.1,7.8,8.7,9.8c4.1,1.8,8.3,1.7,12.5-0.1c4.2-1.9,10.4-6.8,18.5-14.9
			c8.4-8.3,16.1-13.3,23.1-15.2c7-1.9,14.2-1.2,21.5,2c9.2,4,15,10.4,17.4,19.2C1737,1268,1735.8,1277.9,1731.1,1288.9z
			 M1773.8,1161.4l-60.5,11.7l44.5,42.7l-6,20.5l-59.1-59.1l-44.6-13.2l5.6-18.9l44,13l82.3-17.2L1773.8,1161.4z M1790.1,1091
			c-1.9,11.3-6.2,22.2-13.1,32.6l-14.8-8.8c6.2-9.8,9.9-18.8,11.3-27.1c1-6.3,0.5-11.2-1.7-14.9c-2.2-3.7-5.5-5.9-10-6.7
			c-3.1-0.5-5.8-0.3-8.2,0.6c-2.4,0.9-4.8,2.7-7.3,5.4c-2.4,2.6-5.9,7.6-10.4,14.8c-5.1,8.1-9.5,13.9-13.3,17.4
			c-3.8,3.5-7.8,5.9-12.1,7.1c-4.3,1.2-9.1,1.4-14.4,0.5c-10.5-1.7-18.2-6.9-22.9-15.5c-4.7-8.6-6-19.6-3.8-33
			c2.2-13.4,6.1-24,11.7-31.8l18.3,3c-3.4,5-6.4,10.4-8.8,16.2c-2.5,5.8-4.1,11.4-5,16.6c-1.3,7.7-0.8,13.6,1.6,17.7
			c2.3,4.1,5.9,6.6,10.8,7.4c4.4,0.7,8.5-0.3,12.1-3.2c3.6-2.8,8.4-9.1,14.4-18.9c6.2-10.1,12.4-16.9,18.8-20.3
			c6.3-3.5,13.5-4.6,21.3-3.3c9.9,1.6,17.1,6.4,21.6,14.4C1790.8,1069.3,1792.1,1079.2,1790.1,1091z"/>
		<path class="st0" d="M193.5,721.3c14,4.9,25.5,5.7,34.7,2.6c9.2-3.1,15.7-10.2,19.5-21.3c3.8-11,3.2-20.6-2-28.6
			c-5.2-8.1-14.8-14.6-28.9-19.5c-13.9-4.8-25.4-5.7-34.5-2.7c-9.1,3.1-15.6,10.1-19.4,21.1c-3.9,11.1-3.2,20.7,2,28.9
			C170.1,709.9,179.6,716.5,193.5,721.3z"/>
		<path class="st0" d="M138.5,945.2c-2.2,0.9-5.6,2-10.3,3.6c-4.7,1.5-8.1,2.6-10.3,3.2c6.8,1.4,14.1,3.4,22.2,6.1l31.4,10.3
			l-0.6-35L138.5,945.2z"/>
		<path class="st0" d="M192.4,1199.3c-4.6-2.7-10-3-16.3-0.8c-6.4,2.3-10.3,6-11.6,11.1c-1.3,5.2-0.5,12,2.5,20.4l4.3,12.2l37-13
			l-4.5-12.8C200.8,1207.7,197,1202,192.4,1199.3z"/>
	</g>
	<g>
		<path class="st0" d="M631.1,1050.6H451.4v-37.8l64.5-65.2c19.1-19.6,31.6-33.2,37.5-40.7c5.9-7.6,10.1-14.6,12.7-21
			c2.6-6.4,3.9-13.1,3.9-20.1c0-10.3-2.8-18-8.5-23c-5.7-5-13.3-7.6-22.8-7.6c-10,0-19.6,2.3-29,6.9c-9.4,4.6-19.2,11.1-29.4,19.5
			l-29.5-35c12.7-10.8,23.2-18.4,31.5-22.9c8.3-4.5,17.4-7.9,27.3-10.3c9.8-2.4,20.9-3.6,33.1-3.6c16.1,0,30.3,2.9,42.6,8.8
			c12.3,5.9,21.9,14.1,28.7,24.6c6.8,10.6,10.2,22.6,10.2,36.2c0,11.8-2.1,23-6.2,33.3c-4.2,10.4-10.6,21-19.3,31.9
			c-8.7,10.9-24.1,26.4-46.2,46.6l-33.1,31.1v2.5h112V1050.6z"/>
		<path class="st0" d="M682.5,1050.6l96.6-211H652.2v-45.7h184.5v34.1l-97.3,222.7H682.5z"/>
		<path class="st0" d="M1040.9,922c0,44.9-7.4,78.1-22.1,99.7c-14.7,21.6-37.4,32.4-68,32.4c-29.7,0-52-11.1-67.1-33.4
			c-15.1-22.3-22.6-55.2-22.6-98.7c0-45.4,7.3-78.8,22-100.3c14.7-21.5,37.2-32.3,67.7-32.3c29.7,0,52.1,11.3,67.3,33.8
			C1033.3,845.7,1040.9,878.6,1040.9,922z M915.1,922c0,31.5,2.7,54.1,8.2,67.8c5.5,13.7,14.6,20.5,27.5,20.5
			c12.7,0,21.8-6.9,27.4-20.8c5.6-13.8,8.4-36.3,8.4-67.5c0-31.5-2.8-54.2-8.5-68c-5.7-13.8-14.8-20.7-27.3-20.7
			c-12.8,0-21.9,6.9-27.4,20.7C917.9,867.8,915.1,890.5,915.1,922z"/>
		<path class="st0" d="M1246.5,922c0,44.9-7.4,78.1-22.1,99.7c-14.7,21.6-37.4,32.4-68,32.4c-29.7,0-52-11.1-67.1-33.4
			c-15.1-22.3-22.6-55.2-22.6-98.7c0-45.4,7.3-78.8,22-100.3c14.7-21.5,37.2-32.3,67.7-32.3c29.7,0,52.1,11.3,67.3,33.8
			C1238.9,845.7,1246.5,878.6,1246.5,922z M1120.7,922c0,31.5,2.7,54.1,8.2,67.8c5.5,13.7,14.6,20.5,27.5,20.5
			c12.7,0,21.8-6.9,27.4-20.8c5.6-13.8,8.4-36.3,8.4-67.5c0-31.5-2.8-54.2-8.5-68c-5.7-13.8-14.8-20.7-27.3-20.7
			c-12.8,0-21.9,6.9-27.4,20.7C1123.5,867.8,1120.7,890.5,1120.7,922z"/>
		<path class="st0" d="M1408.1,1050.6h-54.3V901.8l0.5-24.4l0.9-26.7c-9,9-15.3,14.9-18.8,17.8l-29.5,23.7l-26.2-32.7l82.8-66h44.7
			V1050.6z"/>
	</g>
	<g>
		<path class="st0" d="M776.4,708V536.5h28V708H776.4z"/>
		<path class="st0" d="M948.5,661.4c0,15.2-5.5,27.2-16.5,35.9c-11,8.7-26.2,13-45.6,13c-19.4,0-35.3-3-47.6-9v-26.5
			c7.8,3.7,16.1,6.6,24.9,8.7s17,3.2,24.6,3.2c11.1,0,19.3-2.1,24.6-6.3c5.3-4.2,7.9-9.9,7.9-17c0-6.4-2.4-11.8-7.3-16.3
			c-4.8-4.5-14.9-9.7-30-15.8c-15.6-6.3-26.7-13.6-33.1-21.7c-6.4-8.1-9.6-17.9-9.6-29.3c0-14.3,5.1-25.6,15.2-33.8
			c10.2-8.2,23.8-12.3,40.9-12.3c16.4,0,32.8,3.6,49,10.8l-8.9,22.9c-15.2-6.4-28.8-9.6-40.8-9.6c-9.1,0-15.9,2-20.6,5.9
			c-4.7,3.9-7,9.2-7,15.7c0,4.5,0.9,8.3,2.8,11.4c1.9,3.2,5,6.2,9.3,9c4.3,2.8,12,6.5,23.2,11.1c12.6,5.2,21.8,10.1,27.7,14.7
			c5.9,4.5,10.2,9.7,12.9,15.4C947.2,646.9,948.5,653.7,948.5,661.4z"/>
		<path class="st0" d="M1133.9,622c0,27.9-7,49.6-20.9,65.1c-14,15.5-33.7,23.2-59.3,23.2c-25.9,0-45.7-7.7-59.6-23
			c-13.9-15.4-20.8-37.2-20.8-65.5c0-28.3,7-50,20.9-65.2c14-15.2,33.9-22.7,59.7-22.7c25.5,0,45.2,7.7,59.1,23.1
			C1126.9,572.3,1133.9,594,1133.9,622z M1003.1,622c0,21.1,4.3,37.1,12.8,48c8.5,10.9,21.1,16.4,37.9,16.4
			c16.6,0,29.2-5.4,37.7-16.2c8.5-10.8,12.7-26.9,12.7-48.2c0-21-4.2-37-12.6-47.8c-8.4-10.9-20.9-16.3-37.6-16.3
			c-16.8,0-29.5,5.4-38,16.3C1007.3,585,1003.1,601,1003.1,622z"/>
	</g>
	<g>
		<path class="st0" d="M708.7,1165.2c-8.1,0-14.4,2.9-19,8.6c-4.6,5.7-6.9,13.6-6.9,23.6c0,10.5,2.2,18.5,6.7,23.9
			c4.4,5.4,10.9,8.1,19.3,8.1c3.6,0,7.2-0.4,10.6-1.1c3.4-0.7,6.9-1.7,10.6-2.8v12c-6.7,2.5-14.3,3.8-22.9,3.8
			c-12.5,0-22.2-3.8-28.9-11.4c-6.7-7.6-10.1-18.5-10.1-32.6c0-8.9,1.6-16.7,4.9-23.4c3.3-6.7,8-11.8,14.2-15.4
			c6.2-3.6,13.4-5.3,21.8-5.3c8.8,0,16.8,1.8,24.3,5.5l-5,11.7c-2.9-1.4-5.9-2.6-9.2-3.6C715.6,1165.7,712.2,1165.2,708.7,1165.2z"
			/>
		<path class="st0" d="M796.8,1240.1h-48.5v-85.7h48.5v11.8h-34.5v23.3h32.3v11.7h-32.3v26.9h34.5V1240.1z"/>
		<path class="st0" d="M829.3,1205.9v34.2h-14v-85.7h24.2c11.1,0,19.2,2.1,24.6,6.2c5.3,4.1,8,10.4,8,18.8
			c0,10.7-5.5,18.3-16.6,22.8l24.2,37.9h-15.9l-20.5-34.2H829.3z M829.3,1194.3h9.7c6.5,0,11.3-1.2,14.2-3.6c2.9-2.4,4.4-6,4.4-10.8
			c0-4.8-1.6-8.3-4.7-10.4c-3.2-2.1-7.9-3.2-14.3-3.2h-9.3V1194.3z"/>
		<path class="st0" d="M921.7,1240.1h-14v-73.7h-25.2v-12h64.4v12h-25.2V1240.1z"/>
		<path class="st0" d="M960,1240.1v-85.7h14v85.7H960z"/>
		<path class="st0" d="M1010.5,1240.1h-13.9v-85.7h48.4v11.8h-34.5v26.8h32.3v11.9h-32.3V1240.1z"/>
		<path class="st0" d="M1060.5,1240.1v-85.7h14v85.7H1060.5z"/>
		<path class="st0" d="M1145.7,1240.1h-48.5v-85.7h48.5v11.8h-34.5v23.3h32.3v11.7h-32.3v26.9h34.5V1240.1z"/>
		<path class="st0" d="M1233.9,1196.4c0,14.1-3.9,25-11.8,32.4c-7.9,7.5-19.2,11.2-33.9,11.2h-24v-85.7h26.5
			c13.6,0,24.2,3.7,31.8,11C1230.1,1172.8,1233.9,1183.1,1233.9,1196.4z M1219.1,1196.9c0-20.5-9.6-30.8-28.8-30.8h-12.1v62.2h10
			C1208.8,1228.3,1219.1,1217.8,1219.1,1196.9z"/>
	</g>
</g>
</svg>
