<svg width="740" height="400" viewBox="0 0 740 400" fill="none" xmlns="http://www.w3.org/2000/svg">
<path fill-rule="evenodd" clip-rule="evenodd" d="M2.70898 202.789C2.70898 316.495 113.965 374.208 161.738 393.743L163.397 394.434C165.132 395.282 167.043 395.725 168.977 395.725C170.913 395.725 172.821 395.282 174.559 394.434L176.216 393.743C224.027 374.208 335.209 316.495 335.209 202.789V50.552C335.208 47.7416 334.265 45.0119 332.531 42.7961C330.795 40.5805 328.366 39.0057 325.631 38.3219L172.016 0.368982C170.015 -0.122994 167.924 -0.122994 165.923 0.368982L12.3094 38.3219C9.57337 39.0057 7.14507 40.5805 5.40978 42.7961C3.6745 45.0119 2.73163 47.7416 2.73102 50.552L2.70898 202.789ZM309.975 202.789C309.975 299.485 213.285 350.967 169.003 369.429C124.722 350.944 28.0326 299.456 28.0326 202.789V60.4109L169.003 25.5779L309.975 60.4109V202.789ZM409.398 179.715L392.541 199.836C407.713 213.232 427.306 220.593 447.578 220.516C475.562 220.516 495.198 206.113 495.198 180.457V180.09C495.198 157.567 480.372 148.148 454.069 141.321C431.634 135.596 426.072 132.828 426.072 124.335V123.967C426.072 117.691 431.818 112.707 442.752 112.707C455.025 113.462 466.78 117.905 476.468 125.451L491.292 104.037C477.645 93.132 460.605 87.3184 443.114 87.6004C416.626 87.6004 397.728 103.112 397.728 126.552V126.926C397.728 152.583 414.585 159.777 440.711 166.428C462.41 171.962 466.831 175.656 466.831 182.857V183.224C466.831 190.793 459.794 195.41 448.124 195.41C433.734 195.019 419.975 189.442 409.398 179.715ZM526.072 179.715L509.215 199.836C524.387 213.233 543.98 220.593 564.252 220.516C592.235 220.516 611.872 206.114 611.872 180.456V180.09C611.872 157.567 597.046 148.149 570.743 141.321C548.308 135.596 542.746 132.828 542.746 124.335V123.967C542.746 117.691 548.492 112.707 559.426 112.707C571.698 113.462 583.455 117.905 593.142 125.451L607.959 104.037C594.315 93.131 577.277 87.3171 559.788 87.6005C533.3 87.6005 514.4 103.112 514.4 126.552V126.926C514.4 152.583 531.258 159.777 557.386 166.429C579.084 171.962 583.506 175.656 583.506 182.857V183.224C583.506 190.793 576.468 195.41 564.798 195.41C550.408 195.019 536.649 189.442 526.072 179.715ZM636.668 89.4276H665.205V192.804H729.858V218.644H636.668V89.4276ZM395.488 276.353L389.004 284.09C394.837 289.245 402.369 292.079 410.165 292.056C420.921 292.056 428.474 286.505 428.474 276.639V276.492C428.474 267.83 422.771 264.211 412.662 261.582C404.034 259.388 401.897 258.316 401.897 255.056V254.909C401.897 252.495 404.108 250.579 408.308 250.579C413.031 250.869 417.554 252.579 421.283 255.482L426.978 247.246C421.732 243.052 415.181 240.817 408.455 240.926C406.302 240.668 404.119 240.859 402.046 241.488C399.971 242.119 398.051 243.171 396.409 244.581C394.765 245.99 393.435 247.725 392.503 249.675C391.57 251.625 391.057 253.749 390.994 255.908V256.048C390.994 265.914 397.485 268.688 407.528 271.244C415.868 273.372 417.577 274.789 417.577 277.558V277.704C417.577 280.611 414.866 282.387 410.378 282.387C404.845 282.24 399.554 280.096 395.488 276.353ZM438.105 241.647H475.726V251.381H449.003V261.461H472.513V271.202H449.003V281.641H476.086V291.368H438.105V241.647ZM483.64 266.488V266.628C483.576 269.996 484.192 273.343 485.454 276.47C486.715 279.596 488.595 282.436 490.983 284.823C493.37 287.208 496.216 289.091 499.349 290.359C502.483 291.625 505.84 292.25 509.221 292.198C513.081 292.356 516.93 291.641 520.473 290.103C524.016 288.566 527.161 286.247 529.674 283.321L522.69 276.288C521.021 278.103 518.997 279.558 516.741 280.559C514.484 281.56 512.045 282.088 509.575 282.11C507.585 282.067 505.625 281.623 503.811 280.808C501.997 279.992 500.366 278.821 499.016 277.364C497.666 275.905 496.625 274.193 495.953 272.325C495.283 270.458 494.997 268.475 495.112 266.496V266.349C495.011 264.379 495.308 262.41 495.986 260.556C496.663 258.703 497.707 257.005 499.056 255.562C500.405 254.119 502.031 252.959 503.838 252.154C505.645 251.349 507.597 250.914 509.575 250.874C514.403 251.005 518.985 253.019 522.336 256.482L529.313 248.459C526.766 245.868 523.696 243.845 520.307 242.525C516.917 241.202 513.284 240.613 509.649 240.795C506.227 240.705 502.822 241.307 499.642 242.564C496.46 243.821 493.566 245.707 491.136 248.107C488.706 250.508 486.789 253.375 485.5 256.533C484.212 259.692 483.58 263.079 483.64 266.488ZM537.677 270.042V241.647H548.648V269.733C548.648 277.808 552.715 282.007 559.405 282.007C566.095 282.007 570.17 277.964 570.17 270.086V241.647H581.141V269.688C581.521 272.67 581.223 275.698 580.267 278.549C579.313 281.399 577.726 283.999 575.624 286.154C573.523 288.309 570.96 289.966 568.128 290.999C565.296 292.033 562.267 292.417 559.265 292.124C556.307 292.415 553.323 292.039 550.531 291.022C547.74 290.006 545.214 288.378 543.14 286.257C541.066 284.136 539.498 281.578 538.553 278.771C537.606 275.962 537.308 272.981 537.677 270.042ZM615.215 241.634H592.375V291.341H603.346V275.433H611.974L622.657 291.341H635.521L623.335 273.589C626.569 272.547 629.369 270.473 631.301 267.685C633.233 264.899 634.191 261.556 634.026 258.173V258.034C634.111 255.952 633.777 253.873 633.043 251.921C632.308 249.971 631.189 248.184 629.752 246.67C627.787 244.91 625.488 243.56 622.993 242.695C620.496 241.83 617.852 241.47 615.215 241.634ZM622.885 258.747C622.885 262.931 619.82 265.771 614.479 265.771H603.36V251.501H614.266C619.606 251.501 622.885 253.916 622.885 258.599V258.747ZM643.985 241.647H681.561V251.381H654.844V261.461H678.349V271.202H654.844V281.641H681.921V291.368H643.985V241.647ZM711.125 241.625H691.674V291.324H711.125C714.53 291.536 717.942 291.05 721.152 289.897C724.36 288.743 727.298 286.947 729.784 284.619C732.269 282.29 734.25 279.479 735.603 276.359C736.954 273.238 737.652 269.874 737.649 266.474V266.327C737.648 262.937 736.948 259.581 735.591 256.47C734.235 253.36 732.252 250.56 729.765 248.244C727.279 245.927 724.341 244.145 721.135 243.007C717.929 241.868 714.52 241.398 711.125 241.625ZM716.982 280.565C715.113 281.267 713.118 281.568 711.125 281.451L702.644 281.458V251.492H711.125C713.126 251.389 715.128 251.707 716.999 252.424C718.871 253.141 720.569 254.241 721.986 255.653C723.404 257.065 724.507 258.758 725.228 260.622C725.947 262.487 726.266 264.48 726.163 266.474V266.615C726.261 268.601 725.938 270.587 725.216 272.441C724.492 274.295 723.386 275.977 721.966 277.377C720.549 278.777 718.85 279.862 716.982 280.565ZM132.228 91.1817C141.861 81.5992 154.913 76.2143 168.525 76.2085C182.126 76.2298 195.164 81.6216 204.782 91.2025C214.403 100.783 219.818 113.773 219.843 127.324V139.862C224.832 140.421 229.442 142.788 232.794 146.513C236.146 150.239 238.005 155.062 238.018 160.064V249.501C238.014 254.919 235.85 260.114 232.005 263.944C228.16 267.776 222.946 269.931 217.507 269.937H120.45C115.01 269.931 109.795 267.776 105.949 263.945C102.102 260.114 99.9373 254.92 99.9295 249.501V160.028C99.942 155.187 101.68 150.508 104.834 146.824C107.988 143.142 112.352 140.696 117.148 139.921V127.324C117.174 113.763 122.597 100.764 132.228 91.1817ZM189.005 106.958C183.572 101.547 176.206 98.5035 168.525 98.4958C160.85 98.5035 153.49 101.542 148.058 106.945C142.627 112.348 139.566 119.676 139.547 127.324V139.627H197.502V127.361C197.494 119.706 194.438 112.369 189.005 106.958ZM122.306 247.65H215.68L215.657 161.914H122.306V247.65ZM202.197 192.438L186.724 177.022L163.25 200.404L151.284 188.474L135.811 203.891L147.783 215.819L163.256 231.236L178.729 215.819L202.197 192.438Z" fill="#333333"/>
</svg>
